#Comment line ignore any data following # character 
#Hierarchical Translation and Rotation (.htr) file 
[Header]	
#Header keywords are followed by a single value 
FileType HTR		#Single word string
DataType HTRS		#Translation followed by rotation and scale data
FileVersion 1		#integer
NumSegments 64		#integer
NumFrames 3		#integer
DataFrameRate 30		#integer, data frame rate in this file
EulerRotationOrder ZYX
CalibrationUnits mm
RotationUnits Degrees
GlobalAxisofGravity Y
BoneLengthAxis Y
ScaleFactor 1.00
[SegmentNames&Hierarchy]
#CHILD	PARENT
Pinger_Root GLOBAL
Pelvis Pinger_Root
L_Hip Pelvis
R_Hip Pelvis
Rear_Leg01 Pelvis
Spine1 Pelvis
L_Leg01 L_Hip
L_Leg02 L_Leg01
L_Leg03 L_Leg02
L_Foot L_Leg03
L_Toe1_01 L_Foot
L_Toe2_01 L_Foot
L_Toe3_01 L_Foot
planeAlignerLeft L_Foot
L_Toe1_02 L_Toe1_01
L_Toe1_03 L_Toe1_02
L_Toe2_02 L_Toe2_01
L_Toe2_03 L_Toe2_02
L_Toe3_02 L_Toe3_01
L_Toe3_03 L_Toe3_02
planeLockWeightLeft planeAlignerLeft
R_Leg01 R_Hip
R_Leg02 R_Leg01
R_Leg03 R_Leg02
R_Foot R_Leg03
planeAlignerRight R_Foot
R_Toe1_01 R_Foot
R_Toe2_01 R_Foot
R_Toe3_01 R_Foot
planeLockWeightRight planeAlignerRight
R_Toe1_02 R_Toe1_01
R_Toe1_03 R_Toe1_02
R_Toe2_02 R_Toe2_01
R_Toe2_03 R_Toe2_02
R_Toe3_02 R_Toe3_01
R_Toe3_03 R_Toe3_02
Rear_Leg02 Rear_Leg01
Rear_Leg03 Rear_Leg02
Rear_Leg04 Rear_Leg03
Rear_Foot Rear_Leg04
planeAlignerCenter Rear_Foot
Rear_Toe1_01 Rear_Foot
Rear_Toe2_01 Rear_Foot
Rear_Toe3_01 Rear_Foot
planeLockWeightCenter planeAlignerCenter
Rear_Toe1_02 Rear_Toe1_01
Rear_Toe1_03 Rear_Toe1_02
Rear_Toe2_02 Rear_Toe2_01
Rear_Toe2_03 Rear_Toe2_02
Rear_Toe3_02 Rear_Toe3_01
Rear_Toe3_03 Rear_Toe3_02
Back_Bone Spine1
Head Spine1
Motor_Bone Back_Bone
Ping_Mechanism Back_Bone
BN_LookIK Head
bottomMouth Head
L_Mouth01 Head
L_mouthFront Head
mouthGun Head
R_Mouth01 Head
R_mouthFront Head
TopMouth Head
weapon_bone Head
[BasePosition]
#SegmentName Tx, Ty, Tz, Rx, Ry, Rz, BoneLength
Pinger_Root 0.000000 0.000000 0.000000 -90.000000 0.000000 0.000000 10.000000 
Pelvis 0.000000 0.000000 0.000000 0.000000 0.000000 0.000000 10.000000 
L_Hip 0.000000 0.000000 0.000000 0.000000 0.000000 0.000000 10.000000 
R_Hip 0.000000 0.000000 0.000000 0.000000 0.000000 0.000000 10.000000 
Rear_Leg01 0.000000 0.000000 0.000000 0.000000 0.000000 0.000000 10.000000 
Spine1 0.000000 0.000000 0.000000 0.000000 0.000000 0.000000 10.000000 
L_Leg01 0.000000 0.000000 0.000000 0.000000 0.000000 0.000000 10.000000 
L_Leg02 0.000000 0.000000 0.000000 0.000000 0.000000 0.000000 10.000000 
L_Leg03 0.000000 0.000000 0.000000 0.000000 0.000000 0.000000 10.000000 
L_Foot 0.000000 0.000000 0.000000 0.000000 0.000000 0.000000 10.000000 
L_Toe1_01 0.000000 0.000000 0.000000 0.000000 0.000000 0.000000 10.000000 
L_Toe2_01 0.000000 0.000000 0.000000 0.000000 0.000000 0.000000 10.000000 
L_Toe3_01 0.000000 0.000000 0.000000 0.000000 0.000000 0.000000 10.000000 
planeAlignerLeft 0.000000 0.000000 0.000000 0.000000 0.000000 0.000000 10.000000 
L_Toe1_02 0.000000 0.000000 0.000000 0.000000 0.000000 0.000000 10.000000 
L_Toe1_03 0.000000 0.000000 0.000000 0.000000 0.000000 0.000000 10.000000 
L_Toe2_02 0.000000 0.000000 0.000000 0.000000 0.000000 0.000000 10.000000 
L_Toe2_03 0.000000 0.000000 0.000000 0.000000 0.000000 0.000000 10.000000 
L_Toe3_02 0.000000 0.000000 0.000000 0.000000 0.000000 0.000000 10.000000 
L_Toe3_03 0.000000 0.000000 0.000000 0.000000 0.000000 0.000000 10.000000 
planeLockWeightLeft 0.000000 0.000000 0.000000 0.000000 0.000000 0.000000 10.000000 
R_Leg01 0.000000 0.000000 0.000000 0.000000 0.000000 0.000000 10.000000 
R_Leg02 0.000000 0.000000 0.000000 0.000000 0.000000 0.000000 10.000000 
R_Leg03 0.000000 0.000000 0.000000 0.000000 0.000000 0.000000 10.000000 
R_Foot 0.000000 0.000000 0.000000 0.000000 0.000000 0.000000 10.000000 
planeAlignerRight 0.000000 0.000000 0.000000 0.000000 0.000000 0.000000 10.000000 
R_Toe1_01 0.000000 0.000000 0.000000 0.000000 0.000000 0.000000 10.000000 
R_Toe2_01 0.000000 0.000000 0.000000 0.000000 0.000000 0.000000 10.000000 
R_Toe3_01 0.000000 0.000000 0.000000 0.000000 0.000000 0.000000 10.000000 
planeLockWeightRight 0.000000 0.000000 0.000000 0.000000 0.000000 0.000000 10.000000 
R_Toe1_02 0.000000 0.000000 0.000000 0.000000 0.000000 0.000000 10.000000 
R_Toe1_03 0.000000 0.000000 0.000000 0.000000 0.000000 0.000000 10.000000 
R_Toe2_02 0.000000 0.000000 0.000000 0.000000 0.000000 0.000000 10.000000 
R_Toe2_03 0.000000 0.000000 0.000000 0.000000 0.000000 0.000000 10.000000 
R_Toe3_02 0.000000 0.000000 0.000000 0.000000 0.000000 0.000000 10.000000 
R_Toe3_03 0.000000 0.000000 0.000000 0.000000 0.000000 0.000000 10.000000 
Rear_Leg02 0.000000 0.000000 0.000000 0.000000 0.000000 0.000000 10.000000 
Rear_Leg03 0.000000 0.000000 0.000000 0.000000 0.000000 0.000000 10.000000 
Rear_Leg04 0.000000 0.000000 0.000000 0.000000 0.000000 0.000000 10.000000 
Rear_Foot 0.000000 0.000000 0.000000 0.000000 0.000000 0.000000 10.000000 
planeAlignerCenter 0.000000 0.000000 0.000000 0.000000 0.000000 0.000000 10.000000 
Rear_Toe1_01 0.000000 0.000000 0.000000 0.000000 0.000000 0.000000 10.000000 
Rear_Toe2_01 0.000000 0.000000 0.000000 0.000000 0.000000 0.000000 10.000000 
Rear_Toe3_01 0.000000 0.000000 0.000000 0.000000 0.000000 0.000000 10.000000 
planeLockWeightCenter 0.000000 0.000000 0.000000 0.000000 0.000000 0.000000 10.000000 
Rear_Toe1_02 0.000000 0.000000 0.000000 0.000000 0.000000 0.000000 10.000000 
Rear_Toe1_03 0.000000 0.000000 0.000000 0.000000 0.000000 0.000000 10.000000 
Rear_Toe2_02 0.000000 0.000000 0.000000 0.000000 0.000000 0.000000 10.000000 
Rear_Toe2_03 0.000000 0.000000 0.000000 0.000000 0.000000 0.000000 10.000000 
Rear_Toe3_02 0.000000 0.000000 0.000000 0.000000 0.000000 0.000000 10.000000 
Rear_Toe3_03 0.000000 0.000000 0.000000 0.000000 0.000000 0.000000 10.000000 
Back_Bone 0.000000 0.000000 0.000000 0.000000 0.000000 0.000000 10.000000 
Head 0.000000 0.000000 0.000000 0.000000 0.000000 0.000000 10.000000 
Motor_Bone 0.000000 0.000000 0.000000 0.000000 0.000000 0.000000 10.000000 
Ping_Mechanism 0.000000 0.000000 0.000000 0.000000 0.000000 0.000000 10.000000 
BN_LookIK 0.000000 0.000000 0.000000 0.000000 0.000000 0.000000 10.000000 
bottomMouth 0.000000 0.000000 0.000000 0.000000 0.000000 0.000000 10.000000 
L_Mouth01 0.000000 0.000000 0.000000 0.000000 0.000000 0.000000 10.000000 
L_mouthFront 0.000000 0.000000 0.000000 0.000000 0.000000 0.000000 10.000000 
mouthGun 0.000000 0.000000 0.000000 0.000000 0.000000 0.000000 10.000000 
R_Mouth01 0.000000 0.000000 0.000000 0.000000 0.000000 0.000000 10.000000 
R_mouthFront 0.000000 0.000000 0.000000 0.000000 0.000000 0.000000 10.000000 
TopMouth 0.000000 0.000000 0.000000 0.000000 0.000000 0.000000 10.000000 
weapon_bone 0.000000 0.000000 0.000000 0.000000 0.000000 0.000000 10.000000 
#Beginning of Data. Separated by tabs
#Fr	Tx	Ty	Tz	Rx	Ry	Rz	SF
[Pinger_Root]
17 0.000000 0.000000 0.000000 -0.000075 -0.000000 -0.000020 0.000000
18 0.000000 0.000000 0.000000 -0.000075 -0.000000 -0.000020 0.000000
19 0.000000 0.000000 0.000000 -0.000075 -0.000000 -0.000020 0.000000
[Pelvis]
17 -1402.967896 1775.405518 3773.178711 148.548889 -74.474747 -157.256241 4399.688965
18 -1433.296753 1737.443848 3628.909668 173.853302 -78.158775 176.633484 4271.069336
19 -1459.939087 1714.723511 3536.305176 -140.264832 -80.337509 130.402359 4192.511230
[L_Hip]
17 5.766392 125.831482 872.656799 160.158691 -45.484905 122.312202 881.701050
18 5.766392 125.831482 872.656799 160.158691 -45.484894 122.312202 881.701050
19 5.766392 125.831482 872.656799 160.158691 -45.484905 122.312202 881.701050
[R_Hip]
17 5.765438 125.836372 -872.654907 38.087841 49.812687 125.703735 881.699829
18 5.765438 125.836372 -872.654907 38.087841 49.812687 125.703735 881.699829
19 5.765438 125.836372 -872.654907 38.087841 49.812687 125.703735 881.699829
[Rear_Leg01]
17 -192.298416 -925.602966 -0.001907 170.388260 14.828144 -139.113388 945.367432
18 -192.298416 -925.602966 -0.001907 170.750916 16.181795 -145.314377 945.367432
19 -192.298416 -925.602966 -0.001907 171.364655 18.038038 -150.830338 945.367432
[Spine1]
17 290.604584 5.007505 0.000477 44.912025 -12.447616 -46.927738 290.647736
18 290.604584 5.007505 0.000477 45.396751 -13.662889 -45.482727 290.647736
19 290.604584 5.007505 0.000477 45.785725 -14.724806 -43.181400 290.647736
[L_Leg01]
17 761.932007 -0.002384 -0.069261 55.445251 -3.600534 -0.812014 761.932068
18 761.932007 -0.002384 -0.069261 51.073879 -9.404334 7.801368 761.932068
19 761.932007 -0.002384 -0.069261 42.276447 -13.308083 13.293954 761.932068
[L_Leg02]
17 1441.140503 -0.000954 -0.000715 7.932228 -0.057619 -176.976242 1441.140503
18 1441.140503 -0.000954 -0.000715 8.739013 -0.040091 175.113052 1441.140503
19 1441.140503 -0.000954 -0.000715 9.105831 -0.039333 171.304520 1441.140503
[L_Leg03]
17 1686.963989 -0.000715 -0.000954 -0.042837 0.019670 122.263908 1686.963989
18 1686.963989 -0.000715 -0.000954 -0.044004 0.021890 122.405006 1686.963989
19 1686.963989 -0.000715 -0.000954 -0.045166 0.024112 122.546097 1686.963989
[L_Foot]
17 3041.570068 -30.715107 11.297464 -32.272354 21.799623 72.269096 3041.746094
18 3041.570068 -30.715107 11.297464 -33.993729 20.872192 73.191887 3041.746094
19 3041.570068 -30.715107 11.297464 -33.738667 20.463120 74.135078 3041.746094
[L_Toe1_01]
17 -188.216690 -224.732346 -21.137953 89.330788 -2.396121 -161.427643 293.899567
18 -188.216690 -224.732346 -21.137953 89.330788 -2.396120 -161.427643 293.899567
19 -188.216690 -224.732346 -21.137953 89.330780 -2.396120 -161.427643 293.899567
[L_Toe2_01]
17 200.746536 -219.926590 148.838394 -78.791496 -10.652695 -43.374847 332.896027
18 200.746536 -219.926590 148.838394 -78.791496 -10.652693 -43.374851 332.896027
19 200.746536 -219.926590 148.838394 -78.791496 -10.652695 -43.374847 332.896027
[L_Toe3_01]
17 188.832520 -219.859131 -191.078659 -109.186691 26.104874 -48.222931 347.140900
18 188.832520 -219.859131 -191.078659 -109.186691 26.104874 -48.222931 347.140900
19 188.832520 -219.859131 -191.078659 -109.186691 26.104874 -48.222931 347.140900
[planeAlignerLeft]
17 0.812531 -811.448792 -0.314951 0.000000 -90.000000 -90.001900 811.449280
18 0.812531 -811.448792 -0.314951 0.000000 -90.000000 -90.001900 811.449280
19 0.812531 -811.448792 -0.314951 0.000000 -90.000000 -90.001900 811.449280
[L_Toe1_02]
17 413.761139 0.000477 0.000000 0.000203 -25.410625 -0.000182 413.761139
18 413.761139 0.000477 0.000000 0.000203 -25.410625 -0.000182 413.761139
19 413.761139 0.000477 0.000000 0.000203 -25.410625 -0.000182 413.761139
[L_Toe1_03]
17 464.317322 0.000358 -0.000089 0.004933 62.473137 0.004933 464.317322
18 464.317322 0.000358 -0.000089 0.004933 62.473137 0.004933 464.317322
19 464.317322 0.000358 -0.000089 0.004933 62.473137 0.004933 464.317322
[L_Toe2_02]
17 342.235809 -0.000477 0.000238 -0.000101 -70.104240 0.000129 342.235809
18 342.235809 -0.000477 0.000238 -0.000101 -70.104240 0.000129 342.235809
19 342.235809 -0.000477 0.000238 -0.000101 -70.104240 0.000129 342.235809
[L_Toe2_03]
17 420.210846 -0.000715 0.000000 0.016997 82.081528 0.016997 420.210846
18 420.210846 -0.000715 0.000000 0.016997 82.081528 0.016997 420.210846
19 420.210846 -0.000715 0.000000 0.016997 82.081528 0.016997 420.210846
[L_Toe3_02]
17 329.270111 0.000954 0.000000 0.001178 -80.668365 0.001178 329.270111
18 329.270111 0.000954 0.000000 0.001178 -80.668320 0.001178 329.270111
19 329.270111 0.000954 0.000000 0.001178 -80.668365 0.001178 329.270111
[L_Toe3_03]
17 439.137451 -0.001907 0.000954 -179.996323 77.872643 -179.992813 439.137451
18 439.137451 -0.001907 0.000954 -179.996323 77.872643 -179.992813 439.137451
19 439.137451 -0.001907 0.000954 -179.996323 77.872643 -179.992813 439.137451
[planeLockWeightLeft]
17 -0.000954 0.000238 -0.000305 -0.011826 -0.004376 0.005620 0.001029
18 -0.000954 0.000238 -0.000305 -0.011826 -0.004376 0.005620 0.001029
19 -0.000954 0.000238 -0.000305 -0.011826 -0.004376 0.005620 0.001029
[R_Leg01]
17 761.455627 -0.001907 -0.000358 104.450188 5.457271 50.477829 761.455688
18 761.455627 -0.001907 -0.000358 107.222816 -8.846102 40.604828 761.455688
19 761.455627 -0.001907 -0.000358 110.772942 -21.171534 26.424364 761.455688
[R_Leg02]
17 1441.140625 0.000000 -0.000238 -1.532327 -0.288500 -124.287148 1441.140625
18 1441.140625 0.000000 -0.000238 -2.187060 -0.654540 -143.137863 1441.140625
19 1441.140625 0.000000 -0.000238 -2.735668 -1.045695 -160.645096 1441.140625
[R_Leg03]
17 1686.963989 0.000954 0.001431 0.081746 -0.047038 132.777008 1686.963989
18 1686.963989 0.000954 0.001431 0.099202 -0.058388 136.997253 1686.963989
19 1686.963989 0.000954 0.001431 0.110310 -0.066885 140.006592 1686.963989
[R_Foot]
17 3041.560059 -30.531288 -11.204481 31.739313 -24.393677 53.658997 3041.734131
18 3041.560059 -30.531288 -11.204481 32.837753 -23.725870 56.490402 3041.734131
19 3041.560059 -30.531288 -11.204481 34.627453 -22.831760 59.393761 3041.734131
[planeAlignerRight]
17 -0.635147 -812.270569 -0.364304 0.000000 -89.960434 -90.005180 812.270874
18 -0.635147 -812.270569 -0.364304 0.000000 -89.960434 -90.005180 812.270874
19 -0.635147 -812.270569 -0.364304 0.000000 -89.960434 -90.005180 812.270874
[R_Toe1_01]
17 -188.383347 -224.864899 21.052242 90.478722 3.231926 -161.378860 294.101532
18 -188.383347 -224.864899 21.052242 90.478722 3.231926 -161.378860 294.101532
19 -188.383347 -224.864899 21.052242 90.478722 3.231927 -161.378845 294.101532
[R_Toe2_01]
17 200.637817 -220.002121 -148.787384 -105.368958 18.813929 -49.808262 332.857574
18 200.637817 -220.002121 -148.787384 -105.368958 18.813929 -49.808262 332.857574
19 200.637817 -220.002121 -148.787384 -105.368958 18.813929 -49.808262 332.857574
[R_Toe3_01]
17 188.606735 -220.092957 191.126343 -76.041084 -6.322367 -46.892487 347.192566
18 188.606735 -220.092957 191.126343 -76.041069 -6.322364 -46.892479 347.192566
19 188.606735 -220.092957 191.126343 -76.041092 -6.322371 -46.892490 347.192566
[planeLockWeightRight]
17 -0.000477 0.000000 0.000000 -0.011823 -0.004379 -0.000027 0.000477
18 -0.000477 0.000000 0.000000 -0.011823 -0.004379 -0.000027 0.000477
19 -0.000477 0.000000 0.000000 -0.011823 -0.004379 -0.000027 0.000477
[R_Toe1_02]
17 413.762085 0.000477 -0.000119 0.001401 -23.743965 0.001401 413.762085
18 413.762085 0.000477 -0.000119 0.001401 -23.743965 0.001401 413.762085
19 413.762085 0.000477 -0.000119 0.001401 -23.743965 0.001401 413.762085
[R_Toe1_03]
17 464.317810 0.000000 0.001088 0.008919 74.877419 0.008919 464.317810
18 464.317810 0.000000 0.001088 0.008919 74.877388 0.008919 464.317810
19 464.317810 0.000000 0.001088 0.008919 74.877419 0.008919 464.317810
[R_Toe2_02]
17 342.234741 -0.000954 0.000238 0.001188 -72.309311 0.001188 342.234741
18 342.234741 -0.000954 0.000238 0.001188 -72.309273 0.001188 342.234741
19 342.234741 -0.000954 0.000238 0.001188 -72.309250 0.001188 342.234741
[R_Toe2_03]
17 420.210846 0.000715 -0.000268 0.028223 85.233505 0.028223 420.210846
18 420.210846 0.000715 -0.000268 0.028223 85.233429 0.028223 420.210846
19 420.210846 0.000715 -0.000268 0.028223 85.233345 0.028223 420.210846
[R_Toe3_02]
17 329.270355 -0.000477 -0.000954 0.001177 -80.843628 0.001177 329.270355
18 329.270355 -0.000477 -0.000954 0.001177 -80.843628 0.001177 329.270355
19 329.270355 -0.000477 -0.000954 0.001177 -80.843628 0.001177 329.270355
[R_Toe3_03]
17 439.137939 0.000238 0.001431 -179.996658 77.074516 -179.993134 439.137939
18 439.137939 0.000238 0.001431 -179.996658 77.074554 -179.993134 439.137939
19 439.137939 0.000238 0.001431 -179.996658 77.074646 -179.993134 439.137939
[Rear_Leg02]
17 1162.777710 -0.029802 0.005960 0.098670 0.027913 -104.608803 1162.777710
18 1162.777710 -0.029802 0.005960 0.098823 0.027367 -103.976151 1162.777710
19 1162.777710 -0.029802 0.005960 0.101124 0.007747 -97.462952 1162.777710
[Rear_Leg03]
17 607.192505 -0.013351 -0.073195 0.006599 -0.001682 56.811928 607.192505
18 607.192505 -0.013351 -0.073195 0.006603 -0.001666 56.530983 607.192505
19 607.192505 -0.013351 -0.073195 0.006643 -0.001498 53.630497 607.192505
[Rear_Leg04]
17 995.874512 -0.020504 -0.011921 -0.036542 -0.015317 44.516285 995.874573
18 995.874512 -0.020504 -0.011921 -0.036480 -0.015465 44.051739 995.874573
19 995.874512 -0.020504 -0.011921 -0.035799 -0.016983 39.241604 995.874573
[Rear_Foot]
17 3096.176270 -0.067472 -0.041425 -0.117787 69.747475 -151.055954 3096.176270
18 3096.176270 -0.067472 -0.041425 -0.124042 70.080116 -150.207336 3096.176270
19 3096.176270 -0.067472 -0.041425 -0.153392 73.113503 -147.751099 3096.176270
[planeAlignerCenter]
17 0.350077 0.966311 -838.790894 0.000009 0.000003 -179.999985 838.791565
18 0.350077 0.966311 -838.790894 0.000009 0.000003 -179.999985 838.791565
19 0.350077 0.966311 -838.790894 0.000009 0.000003 -179.999985 838.791565
[Rear_Toe1_01]
17 0.653352 83.966492 -371.173737 0.290718 41.925297 90.409943 380.553192
18 0.653352 83.966492 -371.173737 0.290762 41.925259 90.409973 380.553192
19 0.653352 83.966492 -371.173737 0.290808 41.925228 90.410004 380.553192
[Rear_Toe2_01]
17 178.200760 -294.826019 -362.060547 -2.185259 34.545265 -64.362663 499.765686
18 178.200760 -294.826019 -362.060547 -2.185230 34.545227 -64.362648 499.765686
19 178.200760 -294.826019 -362.060547 -2.185202 34.545193 -64.362625 499.765686
[Rear_Toe3_01]
17 -153.359680 -308.780914 -362.060852 3.870838 33.514248 -112.318695 499.952881
18 -153.359680 -308.780914 -362.060852 3.870838 33.514248 -112.318695 499.952881
19 -153.359680 -308.780914 -362.060852 3.870838 33.514248 -112.318695 499.952881
[planeLockWeightCenter]
17 -0.000062 0.000238 0.000000 -0.011814 -0.004373 -0.000015 0.000246
18 -0.000062 0.000238 0.000000 -0.011814 -0.004373 -0.000015 0.000246
19 -0.000062 0.000238 0.000000 -0.011814 -0.004373 -0.000015 0.000246
[Rear_Toe1_02]
17 379.707825 0.194073 0.000477 -0.000242 -31.671694 0.006934 379.707855
18 379.707825 0.194073 0.000477 -0.000242 -31.671741 0.006934 379.707855
19 379.707825 0.194073 0.000477 -0.000242 -31.671782 0.006934 379.707855
[Rear_Toe1_03]
17 500.129700 0.165701 0.000119 -0.000107 51.869774 0.007293 500.129761
18 500.129700 0.165701 0.000119 -0.000107 51.869926 0.007293 500.129761
19 500.129700 0.165701 0.000119 -0.000107 51.870064 0.007293 500.129761
[Rear_Toe2_02]
17 340.494507 0.000238 -0.000954 0.001192 -69.854523 0.001192 340.494507
18 340.494507 0.000238 -0.000954 0.001192 -69.854523 0.001192 340.494507
19 340.494507 0.000238 -0.000954 0.001192 -69.854523 0.001192 340.494507
[Rear_Toe2_03]
17 433.103577 0.000000 0.000238 0.006694 69.804291 0.006694 433.103546
18 433.103577 0.000000 0.000238 0.006694 69.804291 0.006694 433.103546
19 433.103577 0.000000 0.000238 0.006694 69.804276 0.006694 433.103546
[Rear_Toe3_02]
17 340.494141 -0.000358 -0.000477 0.008285 -67.268761 -0.009458 340.494171
18 340.494141 -0.000358 -0.000477 0.008285 -67.268761 -0.009458 340.494171
19 340.494141 -0.000358 -0.000477 0.008285 -67.268761 -0.009458 340.494171
[Rear_Toe3_03]
17 433.103577 0.001431 -0.000238 -0.000971 65.947334 -0.004546 433.103546
18 433.103577 0.001431 -0.000238 -0.000971 65.947365 -0.004546 433.103546
19 433.103577 0.001431 -0.000238 -0.000971 65.947418 -0.004546 433.103546
[Back_Bone]
17 1312.175781 -701.934692 0.000954 0.000023 -0.000007 -85.606667 1488.125488
18 1312.175781 -701.934692 0.000954 0.000023 -0.000007 -85.606667 1488.125488
19 1312.175781 -701.934692 0.000954 0.000023 -0.000007 -85.606667 1488.125488
[Head]
17 1406.159424 809.709290 0.001431 0.001139 -25.574213 -6.615416 1622.625488
18 1406.159424 809.709290 0.001431 0.001674 -23.554422 -2.883658 1622.625488
19 1406.159424 809.709290 0.001431 0.002164 -21.031704 5.581951 1622.625488
[Motor_Bone]
17 1158.364380 -417.834747 0.000477 -10.528146 0.084960 -71.732552 1231.419434
18 1158.364380 -417.834747 0.000477 -11.269273 1.781246 -76.620537 1231.419434
19 1158.364380 -417.834747 0.000477 -11.750057 3.832900 -82.137650 1231.419434
[Ping_Mechanism]
17 1230.153320 -420.733704 5.629120 0.000103 -0.000053 82.120995 1300.125244
18 1230.629395 -421.377899 5.804368 0.000103 -0.000053 82.120995 1300.785156
19 1231.105591 -422.022064 5.979614 0.000103 -0.000053 82.120995 1301.445068
[BN_LookIK]
17 193.241119 1380.371704 -0.002861 0.000000 89.965736 -31.038179 1393.832153
18 193.241119 1380.371704 -0.002861 0.000000 89.965736 -31.038179 1393.832153
19 193.241119 1380.371704 -0.002861 0.000000 89.965736 -31.038179 1393.832153
[bottomMouth]
17 -435.092926 615.759399 -0.000954 -0.000022 0.000016 73.527184 753.966492
18 -435.092926 615.759399 -0.000954 -0.000022 0.000016 73.527184 753.966492
19 -435.092926 615.759399 -0.000954 -0.000022 0.000016 73.527184 753.966492
[L_Mouth01]
17 554.440979 7.658243 838.222046 150.204178 23.759130 109.605339 1005.027161
18 554.440979 7.658243 838.222046 150.204178 23.759130 109.605339 1005.027161
19 554.440979 7.658243 838.222046 150.204178 23.759130 109.605339 1005.027161
[L_mouthFront]
17 551.629089 934.514771 339.150421 0.000081 2.804060 79.119301 1136.941284
18 551.629089 934.514771 339.150421 0.000081 2.804060 79.119301 1136.941284
19 551.629089 934.514771 339.150421 0.000081 2.804060 79.119301 1136.941284
[mouthGun]
17 55.332661 1627.420898 0.000000 0.000023 0.000009 -11.038128 1628.361328
18 55.332661 1627.420898 0.000000 0.000023 0.000009 -11.038128 1628.361328
19 55.332661 1627.420898 0.000000 0.000023 0.000009 -11.038128 1628.361328
[R_Mouth01]
17 554.442383 7.659197 -838.223938 29.795891 -23.759109 109.605331 1005.029541
18 554.442383 7.659197 -838.223938 29.795891 -23.759109 109.605331 1005.029541
19 554.442383 7.659197 -838.223938 29.795891 -23.759109 109.605331 1005.029541
[R_mouthFront]
17 551.629089 934.514282 -339.151367 0.000029 -2.803930 79.119133 1136.941162
18 551.629089 934.514282 -339.151367 0.000029 -2.803930 79.119133 1136.941162
19 551.629089 934.514282 -339.151367 0.000029 -2.803930 79.119133 1136.941162
[TopMouth]
17 461.269867 -56.106091 -0.008583 -0.000059 -0.000268 92.025169 464.669525
18 461.269867 -56.106091 -0.008583 -0.000059 -0.000268 92.025169 464.669525
19 461.269867 -56.106091 -0.008583 -0.000059 -0.000268 92.025169 464.669525
[weapon_bone]
17 -987.239868 1448.372803 0.001431 0.000000 89.965736 -31.038221 1752.833740
18 -987.239868 1448.372803 0.001431 0.000000 89.965736 -31.038221 1752.833740
19 -987.239868 1448.372803 0.001431 0.000000 89.965736 -31.038221 1752.833740
